<?xml version="1.0" encoding="utf-8"?>
<!-- Generator: Adobe Illustrator 26.0.1, SVG Export Plug-In . SVG Version: 6.00 Build 0)  -->
<svg version="1.1" id="Layer_1" xmlns="http://www.w3.org/2000/svg" xmlns:xlink="http://www.w3.org/1999/xlink" x="0px" y="0px"
	 viewBox="0 0 411.2 88.6" style="enable-background:new 0 0 411.2 88.6;" xml:space="preserve">
<style type="text/css">
	.st0{fill:#818181;}
	.st1{fill:#FEFEFE;}
	.st2{fill:#808080;}
</style>
<g id="a">
</g>
<g id="b">
	<g id="c">
		<g>
			<g>
				<path class="st0" d="M408.1,44.4c0,1.4,0,2.7,0,4.1c0,3.5-2.4,6-5.9,6c-1.3,0-2.5,0-3.8,0c-0.5,0-0.8,0.2-0.9,0.7
					c-0.5,1.5-1.1,3-1.8,4.5c-0.2,0.4-0.1,0.7,0.2,1c1,1,1.9,1.9,2.8,2.9c2.3,2.4,2.3,5.9,0.1,8.3c-2,2.1-4,4.2-6.1,6.2
					c-2.4,2.3-5.8,2.3-8.1-0.1c-0.9-0.9-1.9-1.9-2.8-2.8c-0.3-0.3-0.6-0.4-1.1-0.2c-1.4,0.7-2.8,1.3-4.3,1.8c-0.5,0.2-0.7,0.5-0.7,1
					c0,1.3,0,2.6,0,3.9c0,3.3-2.4,5.8-5.6,5.9c-2.9,0.1-5.8,0.1-8.7,0c-3.2-0.1-5.6-2.6-5.6-5.9c0-1.3,0-2.6,0-3.9
					c0-0.5-0.2-0.8-0.7-1c-1.5-0.5-2.9-1.1-4.3-1.8c-0.5-0.2-0.8-0.2-1.1,0.2c-0.9,1-1.9,2-2.8,2.9c-2,2-4.6,2.3-7,0.8
					c-1-0.6-1.8-1.5-2.5-2.3c-0.8-0.8-1.6-1.6-2.3-2.4c-0.8-0.8-1.7-1.7-2.5-2.5c-2-2.2-2-5.6,0-7.8c0.9-1,1.9-2,2.9-3
					c0.4-0.4,0.5-0.8,0.2-1.3c-0.7-1.4-1.3-2.8-1.7-4.2c-0.2-0.6-0.5-0.8-1.1-0.8c-1.2,0-2.4-0.1-3.6,0c-3.1,0.2-6-2.6-6-5.6
					c0-3.2-0.2-6.5,0.1-9.7c0.2-2.8,2.7-5,5.4-5c1.4,0,2.7,0,4.1,0c0.6,0,0.9-0.2,1.1-0.8c0.5-1.5,1.1-2.9,1.8-4.3
					c0.2-0.4,0.1-0.8-0.2-1.1c-0.9-0.9-1.7-1.7-2.6-2.6c-2.6-2.6-2.6-6.1,0-8.7c1.9-2,3.8-3.9,5.7-5.8c2.4-2.4,5.9-2.4,8.4,0.1
					c0.9,0.9,1.8,1.8,2.7,2.8c0.3,0.3,0.6,0.4,1,0.2c1.4-0.7,2.9-1.4,4.4-1.9c0.4-0.1,0.6-0.4,0.6-0.9c0-1.4,0-2.7,0-4.1
					c0-3.2,2.6-5.9,5.8-5.9c2.8,0,5.7,0,8.5,0c3.2,0,5.7,2.6,5.7,5.8c0,1.4,0,2.7,0,4.1c0,0.5,0.2,0.8,0.7,0.9
					c1.5,0.5,2.9,1.1,4.3,1.8c0.5,0.3,0.8,0.2,1.2-0.2c0.9-1,1.8-1.9,2.8-2.8c2.3-2.3,5.7-2.3,8.1,0c2.1,2,4.1,4,6.1,6.2
					c2.2,2.5,2.4,5.8,0,8.3c-0.9,0.9-1.8,1.9-2.7,2.8c-0.4,0.4-0.5,0.7-0.2,1.2c0.7,1.4,1.3,2.8,1.8,4.3c0.2,0.5,0.5,0.8,1,0.7
					c1.3,0,2.6,0,3.9,0c3.2,0,5.7,2.6,5.7,5.8C408.1,41.4,408.1,42.9,408.1,44.4L408.1,44.4z"/>
				<path class="st1" d="M338.3,44.3c0-15.4,12.2-27.8,27.3-27.7c15,0,27.1,12.3,27.2,27.5c0.1,15.5-12,27.9-27.3,27.9
					C350.1,72,338.2,59.2,338.3,44.3L338.3,44.3z"/>
				<path class="st2" d="M365.1,66.7C353,66.5,343.2,56.3,343.4,44c0.2-12.4,10.3-22.3,22.5-22.1c12.3,0.2,22.2,10.6,21.8,23.3
					C387.2,57.4,377.2,67,365.1,66.7L365.1,66.7z"/>
				<path class="st1" d="M356.7,44.4c0-3.9,0-7.9,0-11.8c0-0.7,0.1-1.4,0.5-2c0.7-1.1,2.1-1.4,3.2-0.7c1.5,1,2.9,2,4.4,3
					c4.4,3,8.8,6.1,13.1,9.1c0.7,0.5,1.3,1,1.4,2c0.1,1.1-0.5,1.8-1.3,2.4c-0.9,0.6-1.8,1.3-2.7,1.9c-4.9,3.4-9.8,6.8-14.7,10.2
					c-1.3,0.9-2.4,0.8-3.4-0.2c-0.5-0.5-0.6-1.2-0.6-1.9C356.7,52.4,356.7,48.4,356.7,44.4L356.7,44.4z"/>
			</g>
			<g>
				<path class="st2" d="M17.1,65.9c-1.3,0-2.3-0.4-3-1.1c-0.7-0.7-1-1.7-1-3.1V27.3c0-1.3,0.3-2.4,1-3.1c0.7-0.7,1.7-1.1,3-1.1
					h21.3c1,0,1.8,0.3,2.3,0.8c0.5,0.5,0.8,1.3,0.8,2.2s-0.3,1.8-0.8,2.3c-0.5,0.5-1.3,0.8-2.3,0.8h-18v11.8h16.7
					c1,0,1.8,0.3,2.3,0.8c0.5,0.5,0.8,1.3,0.8,2.3s-0.3,1.8-0.8,2.3c-0.5,0.5-1.3,0.8-2.3,0.8H20.4v12.4h18c1,0,1.8,0.3,2.3,0.8
					c0.5,0.5,0.8,1.3,0.8,2.3s-0.3,1.8-0.8,2.3s-1.3,0.8-2.3,0.8H17.1z"/>
				<path class="st2" d="M59,66.5c-2.5,0-4.8-0.6-6.7-1.9c-1.9-1.2-3.4-3-4.5-5.4c-1.1-2.3-1.6-5.1-1.6-8.2s0.5-5.9,1.6-8.2
					c1.1-2.3,2.6-4,4.5-5.3c1.9-1.2,4.2-1.9,6.7-1.9s4.5,0.6,6.4,1.8c1.8,1.2,3,2.8,3.7,4.8h-0.7V26.5c0-1.2,0.3-2.2,1-2.8
					c0.6-0.6,1.6-1,2.7-1s2.1,0.3,2.8,1c0.7,0.6,1,1.6,1,2.8v36c0,1.2-0.3,2.2-1,2.9s-1.6,1-2.7,1c-1.2,0-2.1-0.3-2.7-1
					c-0.6-0.7-1-1.6-1-2.9v-4.7l0.7,1.8c-0.6,2.1-1.8,3.8-3.6,5C63.7,65.8,61.5,66.5,59,66.5L59,66.5z M61.1,60.7
					c1.5,0,2.8-0.4,3.9-1.1c1.1-0.7,2-1.8,2.6-3.2s0.9-3.2,0.9-5.4c0-3.2-0.7-5.6-2-7.2c-1.4-1.6-3.1-2.4-5.4-2.4
					c-1.5,0-2.8,0.4-3.9,1.1c-1.1,0.7-2,1.8-2.6,3.2c-0.6,1.4-0.9,3.2-0.9,5.4c0,3.2,0.7,5.6,2,7.2C57.1,59.9,58.9,60.7,61.1,60.7
					L61.1,60.7z"/>
				<path class="st2" d="M87.3,30.2c-1.4,0-2.5-0.4-3.2-1.1c-0.8-0.7-1.2-1.7-1.2-2.9s0.4-2.3,1.2-3s1.9-1,3.2-1s2.5,0.3,3.3,1
					c0.8,0.7,1.1,1.7,1.1,3s-0.4,2.2-1.1,2.9C89.8,29.8,88.7,30.2,87.3,30.2z M87.3,66.3c-1.2,0-2.1-0.4-2.7-1.1c-0.6-0.7-1-1.7-1-3
					V39.9c0-1.3,0.3-2.4,1-3.1c0.6-0.7,1.6-1.1,2.7-1.1c1.2,0,2.1,0.4,2.8,1.1c0.7,0.7,1,1.7,1,3.1v22.2c0,1.3-0.3,2.3-1,3
					S88.5,66.3,87.3,66.3z"/>
				<path class="st2" d="M112.2,66.5c-2.6,0-4.7-0.4-6.5-1.3c-1.7-0.9-3-2.2-3.9-3.9c-0.8-1.7-1.2-3.8-1.2-6.4V41.9h-3.1
					c-1,0-1.7-0.3-2.2-0.8s-0.8-1.2-0.8-2.1c0-0.9,0.3-1.6,0.8-2.1c0.5-0.5,1.2-0.7,2.2-0.7h3.1v-5.5c0-1.2,0.3-2.2,1-2.8
					c0.7-0.6,1.6-1,2.8-1c1.2,0,2.1,0.3,2.7,1c0.6,0.6,1,1.6,1,2.8v5.5h6.3c1,0,1.7,0.2,2.2,0.7s0.8,1.2,0.8,2.1
					c0,0.9-0.3,1.6-0.8,2.1c-0.5,0.5-1.2,0.8-2.2,0.8h-6.3v12.5c0,1.9,0.4,3.4,1.2,4.4s2.2,1.5,4.1,1.5c0.7,0,1.3-0.1,1.8-0.2
					c0.5-0.1,1-0.2,1.4-0.2c0.5,0,0.9,0.1,1.2,0.5c0.3,0.3,0.5,1,0.5,2.1c0,0.8-0.1,1.5-0.4,2.2c-0.3,0.6-0.7,1.1-1.4,1.3
					c-0.5,0.2-1.2,0.3-2,0.5C113.6,66.4,112.8,66.5,112.2,66.5L112.2,66.5z"/>
				<path class="st2" d="M152,66.5c-3,0-5.6-0.5-7.8-1.5s-3.9-2.3-5-4c-1.2-1.7-1.8-3.7-1.8-6c0-1.4,0.2-2.7,0.6-3.8
					c0.4-1.2,0.9-2.3,1.7-3.3c0.7-1,1.6-2,2.7-2.9c1.1-0.9,2.3-1.8,3.6-2.6l2-1.2l-1.1,1.6c-1.7-1.8-3-3.5-3.8-5.1
					c-0.8-1.6-1.2-3.2-1.2-4.9c0-2,0.5-3.8,1.4-5.3c1-1.5,2.3-2.7,4.1-3.6c1.7-0.8,3.8-1.3,6.1-1.3c3.3,0,5.9,0.8,7.8,2.5
					c1.9,1.7,2.9,3.9,2.9,6.8c0,1.5-0.3,3-0.9,4.4c-0.6,1.4-1.6,2.7-2.9,3.9c-1.3,1.2-3.1,2.5-5.3,3.7l0.1-1.8l10.1,11h-1.6
					c0.5-0.9,1-1.9,1.4-2.9c0.4-1.1,0.7-2.2,1-3.5c0.3-1.2,0.5-2.5,0.7-3.8c0.2-1,0.5-1.8,1-2.3c0.5-0.5,1.2-0.8,2.2-0.8
					c1,0,1.8,0.3,2.3,0.9c0.5,0.6,0.7,1.4,0.6,2.5c-0.2,1.9-0.5,3.7-1,5.4c-0.5,1.7-1,3.3-1.7,4.8c-0.7,1.5-1.4,2.8-2.3,4.1
					l-0.1-1.9l5.7,5.8c0.8,0.8,1.1,1.5,1.1,2.3c0,0.8-0.3,1.4-0.9,1.9c-0.6,0.5-1.4,0.8-2.4,0.8c-0.9,0-1.6-0.2-2.2-0.5
					c-0.6-0.3-1.2-0.9-1.9-1.5l-3.7-3.9h1.7c-1.7,1.9-3.8,3.4-6.2,4.5C157.1,65.9,154.6,66.5,152,66.5L152,66.5z M152.4,60.5
					c1.9,0,3.6-0.4,5.1-1.1c1.5-0.8,2.9-1.9,4.1-3.4l-0.2,1.9L149.1,45l3.1,0.3l-1.7,1c-1.4,0.8-2.4,1.6-3.3,2.4
					c-0.8,0.8-1.4,1.6-1.8,2.5c-0.4,0.9-0.6,1.9-0.6,3.1c0,1.9,0.7,3.4,2,4.5C148.1,59.9,150,60.5,152.4,60.5L152.4,60.5z
					 M153.6,27.9c-1.4,0-2.6,0.4-3.5,1.2s-1.3,2-1.3,3.4c0,0.8,0.1,1.5,0.4,2.2c0.2,0.7,0.7,1.4,1.2,2.2s1.4,1.7,2.4,2.9l-1.7-0.1
					c1.7-1,3-1.8,4-2.6c1-0.8,1.7-1.5,2.1-2.3c0.4-0.8,0.7-1.6,0.7-2.5c0-1.4-0.4-2.4-1.2-3.1C156,28.3,154.9,27.9,153.6,27.9
					L153.6,27.9z"/>
				<path class="st2" d="M202,66.3c-1.2,0-2.2-0.4-2.8-1.1c-0.7-0.7-1-1.7-1-2.9V27.1c0-1.3,0.3-2.3,1-2.9c0.7-0.7,1.6-1,2.9-1h14.4
					c4.6,0,8.2,1.1,10.7,3.4s3.8,5.4,3.8,9.4c0,2.6-0.6,4.9-1.7,6.8c-1.1,1.9-2.8,3.4-4.9,4.4c-2.1,1-4.8,1.5-7.8,1.5l0.5-0.9h2
					c1.6,0,3.1,0.4,4.3,1.2c1.2,0.8,2.3,2.1,3.2,3.8l4.5,8.4c0.5,0.8,0.7,1.7,0.7,2.5s-0.3,1.5-0.9,2c-0.6,0.5-1.4,0.8-2.4,0.8
					s-2-0.2-2.6-0.7c-0.7-0.5-1.3-1.2-1.8-2.2l-6-11.3c-0.7-1.4-1.6-2.3-2.5-2.8c-1-0.5-2.2-0.7-3.7-0.7h-5.7v13.6
					c0,1.2-0.3,2.2-1,2.9S203.2,66.3,202,66.3L202,66.3z M205.8,43h9.3c2.7,0,4.8-0.6,6.2-1.7c1.4-1.2,2.1-2.9,2.1-5.2
					c0-2.3-0.7-4-2.1-5.1c-1.4-1.2-3.5-1.7-6.2-1.7h-9.3V43z"/>
				<path class="st2" d="M248.9,66.5c-2.4,0-4.4-0.5-6-1.4c-1.6-0.9-2.8-2.3-3.6-4.1c-0.8-1.8-1.2-4.1-1.2-6.8V39.6
					c0-1.3,0.3-2.3,1-2.9c0.6-0.6,1.6-0.9,2.7-0.9c1.2,0,2.1,0.3,2.8,0.9c0.7,0.6,1,1.6,1,2.9v14.8c0,2.1,0.4,3.7,1.2,4.7
					c0.8,1,2.2,1.5,4,1.5c2,0,3.6-0.7,4.9-2.1c1.3-1.4,1.9-3.2,1.9-5.5V39.6c0-1.3,0.3-2.3,1-2.9c0.6-0.6,1.6-0.9,2.7-0.9
					s2.1,0.3,2.8,0.9c0.7,0.6,1,1.6,1,2.9v22.9c0,2.6-1.2,3.9-3.6,3.9c-1.2,0-2-0.3-2.7-1c-0.6-0.7-1-1.6-1-2.9v-4.6l0.8,1.8
					c-0.8,2.2-2.1,3.9-3.8,5C253.2,65.9,251.2,66.5,248.9,66.5L248.9,66.5z"/>
				<path class="st2" d="M276.6,66.3c-1.2,0-2.1-0.3-2.7-1c-0.6-0.7-1-1.6-1-2.9V39.6c0-1.2,0.3-2.2,1-2.8c0.6-0.6,1.5-1,2.7-1
					c1.2,0,2,0.3,2.7,1c0.6,0.6,1,1.6,1,2.8v4.1l-0.7-1.5c0.9-2.1,2.2-3.8,4.1-4.9c1.9-1.1,3.9-1.7,6.3-1.7c2.3,0,4.3,0.4,5.8,1.3
					c1.5,0.9,2.6,2.2,3.4,4s1.1,4.1,1.1,6.8v14.7c0,1.2-0.3,2.2-1,2.9c-0.6,0.7-1.6,1-2.7,1s-2.1-0.3-2.8-1c-0.7-0.7-1-1.6-1-2.9
					V48.2c0-2.3-0.4-4-1.3-5c-0.9-1.1-2.2-1.6-4-1.6c-2.2,0-3.9,0.7-5.2,2.1c-1.3,1.4-1.9,3.2-1.9,5.5v13.3
					C280.4,65,279.1,66.3,276.6,66.3L276.6,66.3z"/>
			</g>
		</g>
	</g>
</g>
</svg>
